<?xml version="1.0" encoding="UTF-8" standalone="no"?>
<!DOCTYPE svg PUBLIC "-//W3C//DTD SVG 1.1//EN" "http://www.w3.org/Graphics/SVG/1.1/DTD/svg11.dtd">
<svg version="1.1" xmlns="http://www.w3.org/2000/svg" xmlns:xlink="http://www.w3.org/1999/xlink" preserveAspectRatio="xMidYMid meet" viewBox="44.376000000000005 217.49600000000004 553.1840000000002 206.94400000000002" width="549.18" height="202.94"><defs><path d="M88.9 357.7C102.91 357.7 107.65 352.96 107.65 346.82C107.65 340.67 104.9 337.34 93.82 335.55C92.24 335.3 79.6 333.25 78.02 332.99C57.28 329.66 45.44 321.15 45.44 304.38C45.44 287.62 60.22 272.77 87.87 272.77C117.31 272.77 130.3 293.5 130.3 305.34C127.94 305.34 108.99 305.34 106.62 305.34C106.62 299.2 99.71 292.54 87.87 292.54C76.03 292.54 70.08 298.24 70.08 304.38C70.08 309.12 74.62 312.26 83.9 313.66C85.58 313.92 99 315.97 100.67 316.22C121.41 319.36 132.29 328.83 132.29 346.82C132.29 363.39 118.27 377.41 88.83 377.41C51.33 377.41 45.38 351.74 45.38 344.83C46.96 344.83 54.9 344.83 69.18 344.83C73.28 353.41 79.85 357.7 88.9 357.7Z" id="a1qoe5Pvmw"></path><path d="M157.12 248.64C157.12 247.87 157.31 247.23 157.5 247.04C157.7 246.85 158.27 246.66 159.3 246.66C161.49 246.66 179.05 246.66 181.25 246.66C182.21 246.66 182.85 246.66 183.04 246.85C183.23 247.04 183.42 247.42 183.42 248.26C183.42 250.13 183.42 259.49 183.42 276.35C195.4 276.35 202.06 276.35 203.39 276.35C204.35 276.35 204.99 276.35 205.18 276.54C205.38 276.74 205.57 277.12 205.57 277.95C205.57 279.69 205.57 293.62 205.57 295.36C205.57 296.32 205.57 296.96 205.38 297.15C205.18 297.34 204.61 297.34 203.58 297.34C202.25 297.34 195.6 297.34 183.62 297.34C183.62 323.72 183.62 338.38 183.62 341.31C183.62 346.88 184.38 351.04 185.98 353.79C187.58 356.54 190.91 357.95 195.9 357.95C198.85 357.95 201.66 357.57 204.22 356.99C204.61 356.8 204.99 356.8 205.44 356.8C206.02 356.8 206.21 357.38 206.21 358.4C206.21 359.98 206.21 372.63 206.21 374.21C206.21 374.78 206.21 375.17 206.21 375.42C206.21 375.62 206.02 375.81 205.82 376C205.63 376.19 205.25 376.38 204.61 376.58C199.3 377.54 193.92 378.18 188.54 378.18C177.66 378.18 169.92 375.23 165.18 369.28C160.45 363.33 158.08 353.86 158.08 340.61C158.08 337.73 158.08 323.35 158.08 297.47C149.4 297.47 144.58 297.47 143.62 297.47C142.85 297.47 142.4 297.28 142.21 297.09C142.02 296.9 142.02 296.32 142.02 295.3C142.02 293.54 142.02 279.51 142.02 277.76C142.02 276.99 142.21 276.35 142.4 276.16C142.59 275.97 143.17 275.78 144 275.78C144.87 275.84 149.25 276.16 157.12 276.74C157.12 259.88 157.12 250.51 157.12 248.64Z" id="a1lGbIHdpF"></path><path d="M284.93 365.82C283.14 368 280.77 369.98 278.02 371.78C273.28 374.72 266.37 377.73 256.32 377.73C233.41 377.73 219.78 363.71 219.78 347.14C219.78 327.42 233.6 313.6 261.25 313.6C262.76 313.6 270.34 313.6 283.97 313.6C283.97 312.41 283.97 311.75 283.97 311.62C283.97 300.54 277.25 292.86 266.18 292.86C255.1 292.86 249.41 299.97 248.38 305.66C245.91 305.66 226.15 305.66 223.68 305.66C225.86 289.09 239.3 273.09 266.11 273.09C291.78 273.09 308.54 290.05 308.54 311.55C308.54 315.83 308.54 337.2 308.54 375.68L287.81 375.68L285.89 365.82C285.31 365.82 284.99 365.82 284.93 365.82ZM263.17 332.29C250.37 332.29 244.42 337.22 244.42 345.09C244.42 352.96 250.11 357.89 260.22 357.89C275.2 357.89 283.9 349.18 283.9 335.17C283.9 334.98 283.9 334.02 283.9 332.29C271.46 332.29 264.55 332.29 263.17 332.29Z" id="b9luDymg7U"></path><path d="M323.01 297.54C322.82 297.34 322.82 296.77 322.82 295.74C322.82 294 322.82 280.08 322.82 278.34C322.82 277.57 323.01 276.93 323.2 276.74C323.39 276.54 323.97 276.35 324.99 276.35C325.89 276.35 330.37 276.35 338.43 276.35C338.43 266.98 338.43 261.78 338.43 260.74C338.43 247.68 342.21 237.38 349.5 229.82C356.8 222.27 368.32 218.56 383.74 218.56C383.87 218.56 384.84 218.56 384.96 218.56C385.92 218.56 386.56 218.56 386.75 218.75C386.94 218.94 387.14 219.52 387.14 220.54C387.14 222.46 387.14 237.82 387.14 239.74C387.14 240.7 387.14 241.34 386.94 241.54C386.75 241.73 386.18 241.73 385.15 241.73C385.01 241.73 383.88 241.73 383.74 241.73C376 241.73 370.88 243.33 368.32 246.46C365.76 249.6 364.54 254.4 364.54 260.54C364.54 261.57 364.54 266.71 364.54 275.97C377.75 275.97 385.09 275.97 386.56 275.97C387.52 275.97 388.16 275.97 388.35 276.16C388.54 276.35 388.74 276.74 388.74 277.57C388.74 279.31 388.74 293.24 388.74 294.98C388.74 295.94 388.74 296.58 388.54 296.77C388.35 296.96 387.78 296.96 386.75 296.96C385.29 296.96 377.97 296.96 364.8 296.96C364.8 342.81 364.8 368.28 364.8 373.38C364.8 374.34 364.61 374.98 364.42 375.17C364.22 375.36 363.65 375.55 362.62 375.55C360.51 375.55 343.56 375.55 341.44 375.55C340.48 375.55 339.84 375.36 339.65 375.17C339.46 374.98 339.46 374.4 339.46 373.38C339.46 368.28 339.46 342.81 339.46 296.96L324.8 297.92C323.73 297.79 323.14 297.66 323.01 297.54Z" id="j1Xr7xx6pP"></path><path d="M399.3 297.54C399.1 297.34 399.1 296.77 399.1 295.74C399.1 294 399.1 280.08 399.1 278.34C399.1 277.57 399.3 276.93 399.49 276.74C399.68 276.54 400.26 276.35 401.28 276.35C402.18 276.35 406.66 276.35 414.72 276.35C414.72 266.98 414.72 261.78 414.72 260.74C414.72 247.68 418.5 237.38 425.79 229.82C433.09 222.27 444.61 218.56 460.03 218.56C460.15 218.56 461.13 218.56 461.25 218.56C462.21 218.56 462.85 218.56 463.04 218.75C463.23 218.94 463.42 219.52 463.42 220.54C463.42 222.46 463.42 237.82 463.42 239.74C463.42 240.7 463.42 241.34 463.23 241.54C463.04 241.73 462.46 241.73 461.44 241.73C461.3 241.73 460.17 241.73 460.03 241.73C452.29 241.73 447.17 243.33 444.61 246.46C442.05 249.6 440.83 254.4 440.83 260.54C440.83 261.57 440.83 266.71 440.83 275.97C454 275.97 461.32 275.97 462.78 275.97C463.74 275.97 464.38 275.97 464.58 276.16C464.77 276.35 464.96 276.74 464.96 277.57C464.96 279.31 464.96 293.24 464.96 294.98C464.96 295.94 464.96 296.58 464.77 296.77C464.58 296.96 464 296.96 462.98 296.96C461.51 296.96 454.2 296.96 441.02 296.96C441.02 342.81 441.02 368.28 441.02 373.38C441.02 374.34 440.83 374.98 440.64 375.17C440.45 375.36 439.87 375.55 438.85 375.55C436.73 375.55 419.78 375.55 417.66 375.55C416.7 375.55 416.06 375.36 415.87 375.17C415.68 374.98 415.68 374.4 415.68 373.38C415.68 368.28 415.68 342.81 415.68 296.96L401.09 297.92C400.02 297.79 399.42 297.66 399.3 297.54Z" id="f2voTr7Duo"></path><path d="M476.35 275.78C476.1 275.84 475.78 275.84 475.52 275.97C475.39 276.03 475.26 276.1 475.14 276.16C474.94 276.35 474.75 276.93 474.75 277.76C474.75 279.34 474.75 291.99 474.75 293.57C474.75 294.53 474.75 295.17 474.94 295.36C475.14 295.55 475.52 295.74 476.35 295.74C477.17 295.74 481.27 295.74 488.64 295.74L522.88 375.74L532.35 396.48L534.66 401.92L580.67 295.74C588.04 295.74 592.14 295.74 592.96 295.74C593.73 295.74 594.18 295.55 594.37 295.36C594.56 295.17 594.56 294.59 594.56 293.57C594.56 291.99 594.56 279.34 594.56 277.76C594.56 276.99 594.37 276.35 594.18 276.16C593.98 275.97 593.41 275.78 592.58 275.78C592.58 275.78 563.84 276.61 563.58 276.61C562.94 276.67 562.37 276.8 562.11 276.99C561.73 277.18 561.34 277.76 560.9 278.78C559.15 283.22 550.4 305.41 534.66 345.34C518.91 305.41 510.17 283.22 508.42 278.78C508.03 277.82 507.65 277.18 507.2 276.99C506.82 276.8 506.18 276.61 505.28 276.61" id="bxu6bwltx"></path><path d="M534.59 218.5C522.96 218.5 513.54 227.92 513.54 239.55C513.54 251.18 522.96 260.61 534.59 260.61C546.22 260.61 555.65 251.18 555.65 239.55C555.65 227.92 546.22 218.5 534.59 218.5Z" id="a1vcwNI8Le"></path><path d="M512.38 401.66C502.17 401.66 496.49 401.66 495.36 401.66C494.59 401.66 493.95 401.86 493.76 402.05C493.57 402.24 493.38 402.82 493.38 403.65C493.38 405.23 493.38 417.88 493.38 419.46C493.38 420.22 493.38 420.86 493.57 421.06C493.76 421.25 494.14 421.44 494.98 421.44C497.91 421.44 521.36 421.44 524.29 421.44C525.25 421.44 525.89 421.44 526.08 421.25C526.27 421.06 526.66 420.48 527.3 419.46C528 417.81 531.49 409.57 537.79 394.75L524.29 372.22L512.38 401.66Z" id="b3oE6FmvRT"></path></defs><g><g><use xlink:href="#a1qoe5Pvmw" opacity="1" fill="#0c1420" fill-opacity="1"></use><g><use xlink:href="#a1qoe5Pvmw" opacity="1" fill-opacity="0" stroke="#000000" stroke-width="1" stroke-opacity="0"></use></g></g><g><use xlink:href="#a1lGbIHdpF" opacity="1" fill="#0c1420" fill-opacity="1"></use><g><use xlink:href="#a1lGbIHdpF" opacity="1" fill-opacity="0" stroke="#000000" stroke-width="1" stroke-opacity="0"></use></g></g><g><use xlink:href="#b9luDymg7U" opacity="1" fill="#0c1420" fill-opacity="1"></use><g><use xlink:href="#b9luDymg7U" opacity="1" fill-opacity="0" stroke="#000000" stroke-width="1" stroke-opacity="0"></use></g></g><g><use xlink:href="#j1Xr7xx6pP" opacity="1" fill="#0c1420" fill-opacity="1"></use><g><use xlink:href="#j1Xr7xx6pP" opacity="1" fill-opacity="0" stroke="#000000" stroke-width="1" stroke-opacity="0"></use></g></g><g><use xlink:href="#f2voTr7Duo" opacity="1" fill="#0c1420" fill-opacity="1"></use><g><use xlink:href="#f2voTr7Duo" opacity="1" fill-opacity="0" stroke="#000000" stroke-width="1" stroke-opacity="0"></use></g></g><g><use xlink:href="#bxu6bwltx" opacity="1" fill="#174da1" fill-opacity="1"></use><g><use xlink:href="#bxu6bwltx" opacity="1" fill-opacity="0" stroke="#000000" stroke-width="1" stroke-opacity="0"></use></g></g><g><use xlink:href="#a1vcwNI8Le" opacity="1" fill="#174da1" fill-opacity="1"></use><g><use xlink:href="#a1vcwNI8Le" opacity="1" fill-opacity="0" stroke="#000000" stroke-width="1" stroke-opacity="0"></use></g></g><g><use xlink:href="#b3oE6FmvRT" opacity="1" fill="#4570b7" fill-opacity="1"></use><g><use xlink:href="#b3oE6FmvRT" opacity="1" fill-opacity="0" stroke="#000000" stroke-width="1" stroke-opacity="0"></use></g></g></g></svg>